<?xml version="1.0" encoding="UTF-8"?>
<svg version="1.1" xmlns="http://www.w3.org/2000/svg" width="512" height="512">
<path d="M0 0 C5.50184166 4.1140785 10.1854557 9.22730062 14.99293518 14.11419678 C16.1947124 15.32412768 17.39724078 16.53331291 18.60047913 17.74179077 C21.75373193 20.9120797 24.89829918 24.09083601 28.04060364 27.27197266 C33.06634855 32.35711636 38.10488027 37.42958086 43.14416504 42.50130081 C44.89057759 44.26152399 46.6330285 46.02559146 48.37489319 47.79031372 C53.24797514 52.71482062 58.14232624 57.53511317 63.41673279 62.03427124 C68.08113811 66.15475466 72.44194295 70.61174584 76.85621643 74.99700928 C77.38573095 75.52244827 77.91524548 76.04788727 78.46080589 76.58924866 C81.25528195 79.36303131 84.04659021 82.13995824 86.83546448 84.91937256 C89.70288456 87.7756707 92.58180949 90.62008148 95.46336842 93.4621048 C97.69287183 95.66542183 99.91340351 97.8776187 102.1316433 100.0922699 C103.18916581 101.14494386 104.25004429 102.19425823 105.31441689 103.24000549 C106.80259228 104.70371129 108.27750334 106.17967805 109.75001526 107.65911865 C110.58970352 108.49294067 111.42939178 109.3267627 112.29452515 110.18585205 C116.11424563 114.86524967 117.89100166 119.68153789 117.89918518 125.77825928 C117.92818909 127.21491943 117.92818909 127.21491943 117.95777893 128.68060303 C116.34965406 138.92448509 108.56340362 145.27646569 101.53981018 152.18841553 C100.35319417 153.3700981 99.16739659 154.55260303 97.9823761 155.73588562 C95.50359833 158.2070497 93.01853621 160.67163758 90.52809143 163.13104248 C87.35473396 166.26489294 84.19217585 169.40935341 81.0336647 172.55815983 C77.997533 175.5842565 74.9565331 178.60544047 71.91481018 181.62591553 C71.34425148 182.19307848 70.77369278 182.76024143 70.18584442 183.34459114 C60.03611605 193.42156378 60.03611605 193.42156378 55.38453674 197.40032959 C50.58844199 201.50882374 46.20755439 206.03136781 41.7857666 210.53320885 C40.20711092 212.13891617 38.62376978 213.73986455 37.03895569 215.3394928 C32.53888072 219.88192302 28.04175807 224.42715913 23.56080627 228.98846436 C20.80465226 231.79335597 18.03864307 234.58819981 15.26611328 237.37690163 C14.21953866 238.43330938 13.1766127 239.49334596 12.13760376 240.55719566 C0.08913661 252.88751108 0.08913661 252.88751108 -8.88206482 254.40716553 C-17.19319834 254.39687947 -22.05424981 253.12936504 -28.06175232 247.38372803 C-32.77211493 242.22411118 -33.73805433 237.09761324 -33.90159607 230.37982178 C-32.51204441 220.66790158 -26.73799413 215.36204915 -20.02659607 208.80560303 C-18.97285299 207.75866409 -17.92015148 206.71067589 -16.86843872 205.66169739 C-14.105948 202.91256238 -11.32837005 200.17916689 -8.5476532 197.44848633 C-6.29592249 195.23206927 -4.05530318 193.00460735 -1.81519794 190.77645016 C0.88134743 188.0948064 3.582959 185.41829461 6.28590393 182.74310303 C6.79154058 182.24237715 7.29717724 181.74165127 7.81813622 181.22575188 C9.27440437 179.78604427 10.73402756 178.34982946 12.19483948 176.91473389 C13.02074081 176.10169296 13.84664215 175.28865204 14.6975708 174.45097351 C16.84724654 172.42098725 19.02149177 170.47941114 21.25961304 168.55097961 C25.69555346 164.69679671 29.83296855 160.58167342 33.96168518 156.40325928 C34.68871643 155.67171631 35.41574768 154.94017334 36.16481018 154.1864624 C37.93278017 152.40686103 39.69834896 150.6249501 41.46168518 148.84075928 C21.87567246 148.77034154 2.28968581 148.71761193 -17.29642773 148.68532276 C-26.39280647 148.66992466 -35.48910606 148.64897205 -44.58543396 148.61444092 C-52.52376134 148.58432039 -60.46203134 148.56513317 -68.40041429 148.55849379 C-72.59468438 148.55461944 -76.78879048 148.54566603 -80.98300743 148.52356911 C-102.56422435 148.41431786 -123.76021494 148.55239693 -144.60081482 154.96575928 C-146.08859436 155.41362793 -146.08859436 155.41362793 -147.60643005 155.87054443 C-171.52791134 163.34063403 -192.92468207 175.74281616 -211.28440857 192.79779053 C-212.84602215 194.21325656 -214.46211889 195.57000461 -216.11643982 196.87591553 C-219.73497558 199.81159857 -222.560256 203.27329298 -225.53831482 206.84075928 C-226.15706482 207.57165771 -226.77581482 208.30255615 -227.41331482 209.05560303 C-253.73546767 240.94998582 -266.64315786 280.12849965 -266.67893982 321.25091553 C-266.69725483 323.81277347 -266.7168239 326.3746227 -266.73753357 328.9364624 C-266.76653368 332.92791051 -266.79062878 336.91879604 -266.7888031 340.91033936 C-266.79214656 344.79519822 -266.82672658 348.67877971 -266.86643982 352.56341553 C-266.85937012 353.74597427 -266.85230042 354.92853302 -266.84501648 356.14692688 C-266.95494455 363.68027033 -268.13519618 369.59599424 -272.53831482 375.84075928 C-278.53762892 381.54646108 -284.27096624 382.20770743 -292.24143982 382.11029053 C-297.85940718 381.65100173 -301.50376056 380.05824495 -305.31956482 375.89935303 C-309.3629932 370.72109451 -310.65916786 367.09589785 -310.71531677 360.47113037 C-310.72188797 359.82809967 -310.72845917 359.18506897 -310.73522949 358.52255249 C-310.75497957 356.38643246 -310.76664866 354.25038395 -310.77659607 352.11419678 C-310.78270936 351.00671019 -310.78270936 351.00671019 -310.78894615 349.87685013 C-310.80984571 345.94473808 -310.82411266 342.01266098 -310.83348083 338.08050537 C-310.84222435 334.8765288 -310.86280877 331.67300259 -310.89500427 328.46917725 C-311.42201592 274.86409789 -298.23027861 224.81327609 -263.53831482 182.84075928 C-262.81877625 181.9689502 -262.81877625 181.9689502 -262.08470154 181.07952881 C-252.76642484 169.86225262 -243.00792541 159.89975559 -231.53831482 150.84075928 C-230.58569763 150.0595874 -229.63308044 149.27841553 -228.65159607 148.47357178 C-190.16874474 117.62816213 -142.14428457 103.84085119 -93.38475037 103.63543701 C-91.9148686 103.62583021 -90.44498943 103.61581863 -88.97511292 103.60543823 C-85.02767836 103.57868604 -81.08023222 103.55751814 -77.13275886 103.53743625 C-72.99145953 103.51539085 -68.85019471 103.48809398 -64.70892334 103.46138 C-56.88598809 103.41170154 -49.06303343 103.36667181 -41.24006063 103.32335764 C-32.32575843 103.27377127 -23.41149088 103.21893333 -14.4972223 103.16367805 C3.82238127 103.05024002 22.14201764 102.94331965 40.46168518 102.84075928 C39.11864571 101.51104347 39.11864571 101.51104347 37.74847412 100.15446472 C29.30656362 91.79368635 20.87526941 83.42233151 12.45421886 75.04054165 C8.12466517 70.73185087 3.79147451 66.42695535 -0.55027771 62.1305542 C-4.74117849 57.98315563 -8.9221955 53.82602545 -13.0965786 49.66200447 C-14.68986045 48.07610598 -16.28665546 46.49372885 -17.8870182 44.91497612 C-20.13023938 42.70084523 -22.3605736 40.47445389 -24.58836365 38.24481201 C-25.25083099 37.59672577 -25.91329834 36.94863953 -26.59584045 36.28091431 C-31.98211435 30.84608297 -34.96521078 25.80326548 -34.97581482 17.90325928 C-34.76652817 10.62372355 -32.84334254 6.25299759 -27.85081482 1.02825928 C-18.64441162 -5.05144095 -9.51640205 -6.07227268 0 0 Z " fill="#000000" transform="translate(374.53831481933594,66.15924072265625)"/>
</svg>
