<?xml version="1.0" encoding="UTF-8"?>
<svg version="1.1" xmlns="http://www.w3.org/2000/svg" width="512" height="512">
<path d="M0 0 C6.08971332 2.69487314 10.19357322 7.26518435 13.0390625 13.21484375 C14.49967509 20.51790672 14.0395561 26.57372965 10.6640625 33.33984375 C8.63628312 36.02633179 6.30821757 38.33062627 3.89770508 40.67382812 C3.21451706 41.35774628 2.53132904 42.04166443 1.82743835 42.74630737 C-0.4171886 44.98747132 -2.67895714 47.21043497 -4.94140625 49.43359375 C-6.50762616 50.99048107 -8.07274045 52.54848136 -9.63679504 54.10754395 C-13.74398836 58.19570309 -17.86597677 62.26861974 -21.99127197 66.33850098 C-26.20312434 70.49908462 -30.4007496 74.67396808 -34.59960938 78.84765625 C-42.83122225 87.02574449 -51.0785426 95.18779409 -59.3359375 103.33984375 C-58.21311481 103.34480897 -58.21311481 103.34480897 -57.06760883 103.3498745 C-38.75915208 103.43149275 -20.45077586 103.5237079 -2.14243031 103.62737083 C6.71175134 103.67725456 15.56592483 103.72369774 24.42016602 103.76171875 C32.14758992 103.79491017 39.87494565 103.83488553 47.60229379 103.88263381 C51.68470506 103.90763253 55.76707268 103.92948831 59.8495388 103.94318771 C102.4760417 104.09184672 102.4760417 104.09184672 122.6640625 108.52734375 C123.6555127 108.74092529 124.64696289 108.95450684 125.66845703 109.17456055 C152.37035512 115.17281302 178.3505104 126.45702965 200.6640625 142.33984375 C201.5624585 142.9733374 201.5624585 142.9733374 202.47900391 143.61962891 C249.74719422 177.15976395 280.0940704 227.47202698 289.8671875 284.34375 C290.14845781 286.00654369 290.41225879 287.67233341 290.6640625 289.33984375 C290.8391333 290.43296875 291.0142041 291.52609375 291.19458008 292.65234375 C292.02801894 299.50553459 291.91367946 306.44112987 291.97265625 313.3359375 C291.98251399 314.48305049 291.98251399 314.48305049 291.99257088 315.65333748 C292.02499646 319.69668863 292.04949501 323.74001517 292.0690918 327.78344727 C292.0869275 331.11131174 292.12180669 334.43833252 292.17163086 337.76586914 C292.2320523 341.80820868 292.26259403 345.84976476 292.27226448 349.89253426 C292.28077526 351.42307765 292.29948445 352.95360252 292.3290081 354.48388481 C292.47642679 362.55486526 292.41521164 369.07818777 287.26600647 375.69398499 C282.29251785 380.80381404 277.44900494 382.49160925 270.3515625 382.58984375 C263.70638685 382.52346575 260.15794334 381.41807779 255.0390625 377.15234375 C248.61583695 369.54589245 248.08341342 363.15506466 248.125 353.50390625 C248.10731064 351.6538649 248.10731064 351.6538649 248.08926392 349.76644897 C248.05409765 345.83245236 248.04485439 341.89898431 248.0390625 337.96484375 C248.10961166 308.70548584 248.10961166 308.70548584 243.4765625 279.90234375 C243.26298096 279.03456299 243.04939941 278.16678223 242.8293457 277.27270508 C234.43310083 244.47050205 216.14917113 211.92854574 189.6640625 190.33984375 C188.68050781 189.51871094 187.69695312 188.69757813 186.68359375 187.8515625 C155.56128616 162.30648259 117.76677184 149.120459 77.59741211 149.22631836 C76.08871462 149.22660087 74.58001699 149.22644126 73.07131958 149.22587585 C68.99965613 149.22559036 64.92802248 149.23144698 60.85636592 149.23844981 C56.59227956 149.24472465 52.32819243 149.24529041 48.06410217 149.24647522 C40.0001796 149.24957639 31.93627067 149.25777336 23.87235409 149.26782471 C14.68731597 149.27902362 5.50227718 149.2845058 -3.68276608 149.28952014 C-22.56716427 149.29995704 -41.45154979 149.31753288 -60.3359375 149.33984375 C-57.50690874 152.19830382 -54.67192971 155.05079359 -51.8359375 157.90234375 C-51.04445313 158.70220703 -50.25296875 159.50207031 -49.4375 160.32617188 C-45.12238677 164.65896999 -40.73558189 168.82278774 -36.09867287 172.80908203 C-33.72797469 174.86779946 -31.48637699 177.0402233 -29.25268555 179.24609375 C-27.88668465 180.5928418 -27.88668465 180.5928418 -26.49308777 181.96679688 C-25.52759408 182.92412647 -24.56245868 183.88181751 -23.59765625 184.83984375 C-23.10123941 185.33218506 -22.60482258 185.82452637 -22.09336281 186.33178711 C-19.47395742 188.93051211 -16.85771115 191.53237122 -14.24389648 194.13671875 C-11.55807196 196.8114191 -8.86075345 199.47421729 -6.16079998 202.13464355 C-4.0702606 204.19898621 -1.9887059 206.27221557 0.09056664 208.34790039 C1.08110232 209.33359084 2.07499074 210.31592479 3.07238197 211.29467773 C13.81656195 221.85017803 13.81656195 221.85017803 15.09765625 230.1484375 C15.1087812 237.63552755 14.01185418 242.87080409 8.72265625 248.3515625 C3.67849636 252.93125095 0.38309389 254.49850542 -6.5234375 254.65234375 C-8.15345703 254.70841797 -8.15345703 254.70841797 -9.81640625 254.765625 C-19.66765023 253.57385409 -25.52063302 246.67550015 -32.1171875 239.9140625 C-33.13937882 238.88184434 -34.16255033 237.85059603 -35.18664551 236.82026672 C-37.86870828 234.11738161 -40.53897099 231.40314899 -43.20635986 228.68579102 C-47.4709241 224.34567567 -51.75430956 220.02411699 -56.03587341 215.70078468 C-57.51678257 214.20241437 -58.99323882 212.69977702 -60.46887207 211.19621277 C-64.2784529 207.33253716 -68.06176723 203.49876467 -72.18823242 199.97216797 C-78.25612063 194.77629869 -83.82624758 189.03509027 -89.48046875 183.3984375 C-90.40713128 182.47601604 -90.40713128 182.47601604 -91.35251427 181.53495979 C-94.61359606 178.28877247 -97.87186696 175.03979593 -101.12768555 171.78833008 C-104.48106396 168.44046206 -107.8436418 165.101994 -111.20840931 161.76557827 C-113.80684741 159.18577822 -116.39853933 156.59928058 -118.98843956 154.01091194 C-120.22547736 152.77689198 -121.46500541 151.54536296 -122.70710182 150.31643486 C-124.44188146 148.5987608 -126.16689326 146.87181386 -127.88989258 145.14233398 C-128.65434944 144.3916993 -128.65434944 144.3916993 -129.43424988 143.62590027 C-134.35392182 138.6482017 -136.85678745 133.61589655 -137.390625 126.69921875 C-137.0691943 112.83178002 -123.52339901 103.37715167 -114.46484375 94.3359375 C-113.2159137 93.0863323 -111.96713199 91.83657882 -110.7184906 90.58668518 C-108.11204319 87.97877071 -105.50381456 85.37265468 -102.89428711 82.76782227 C-99.56805229 79.4472841 -96.24632816 76.12227563 -92.92593479 72.79589748 C-90.35137927 70.21770949 -87.77442335 67.64193131 -85.19676018 65.06685066 C-83.97175882 63.84251115 -82.74748531 62.61744291 -81.52398872 61.39159966 C-75.90191279 55.76110585 -70.28760152 50.1903191 -64.23228455 45.02049255 C-60.32738786 41.55975473 -56.73350292 37.77433086 -53.0859375 34.046875 C-51.32596826 32.26453204 -49.56553769 30.48264451 -47.8046875 28.70117188 C-45.06166056 25.92100388 -42.3218366 23.13793821 -39.58984375 20.34692383 C-36.93104401 17.63352714 -34.25961963 14.93309778 -31.5859375 12.234375 C-30.37309082 10.98585503 -30.37309082 10.98585503 -29.13574219 9.71211243 C-20.73713259 1.27522109 -12.14655075 -3.43272086 0 0 Z " fill="#000000" transform="translate(156.3359375,65.66015625)"/>
</svg>
